<svg id="visual" viewBox="0 0 900 450" width="900" height="450" xmlns="http://www.w3.org/2000/svg" xmlns:xlink="http://www.w3.org/1999/xlink" version="1.1"><rect x="0" y="0" width="900" height="450" fill="#3f3b3f"></rect><defs><linearGradient id="grad1_0" x1="50%" y1="0%" x2="100%" y2="100%"><stop offset="10%" stop-color="#3f3b3f" stop-opacity="1"></stop><stop offset="90%" stop-color="#3f3b3f" stop-opacity="1"></stop></linearGradient></defs><defs><linearGradient id="grad2_0" x1="0%" y1="0%" x2="50%" y2="100%"><stop offset="10%" stop-color="#3f3b3f" stop-opacity="1"></stop><stop offset="90%" stop-color="#3f3b3f" stop-opacity="1"></stop></linearGradient></defs><g transform="translate(900, 0)"><path d="M0 292.5C-61.8 291 -123.5 289.4 -146.2 253.3C-169 217.2 -152.7 146.5 -170.6 98.5C-188.5 50.5 -240.5 25.3 -292.5 0L0 0Z" fill="#d3b5f3"></path></g><g transform="translate(0, 450)"><path d="M0 -292.5C39.4 -265 78.8 -237.4 125 -216.5C171.2 -195.6 224.3 -181.2 253.3 -146.3C282.4 -111.3 287.4 -55.6 292.5 0L0 0Z" fill="#d3b5f3"></path></g></svg>