<svg id="visual" viewBox="0 0 900 600" width="900" height="600" xmlns="http://www.w3.org/2000/svg" xmlns:xlink="http://www.w3.org/1999/xlink" version="1.1"><path d="M0 582L21.5 580.7C43 579.3 86 576.7 128.8 573.2C171.7 569.7 214.3 565.3 257.2 566C300 566.7 343 572.3 385.8 575.2C428.7 578 471.3 578 514.2 578.8C557 579.7 600 581.3 642.8 577.7C685.7 574 728.3 565 771.2 562.5C814 560 857 564 878.5 566L900 568L900 601L878.5 601C857 601 814 601 771.2 601C728.3 601 685.7 601 642.8 601C600 601 557 601 514.2 601C471.3 601 428.7 601 385.8 601C343 601 300 601 257.2 601C214.3 601 171.7 601 128.8 601C86 601 43 601 21.5 601L0 601Z" fill="#3f3b3f" stroke-linecap="round" stroke-linejoin="miter"></path></svg>